ply
format ascii 1.0
comment : d6
comment : MagicaVoxel @ Ephtracy
element vertex 1264
property float x
property float y
property float z
property uchar red
property uchar green
property uchar blue
element face 316
property list uchar int vertex_index
end_header
-3.5 2.5 0 238 238 238
-3.5 2.5 1 238 238 238
-3.5 3.5 1 238 238 238
-3.5 3.5 0 238 238 238
-3.5 -0.5 3 17 17 17
-3.5 -0.5 4 17 17 17
-3.5 0.5 4 17 17 17
-3.5 0.5 3 17 17 17
2.5 -2.5 5 17 17 17
2.5 -2.5 6 17 17 17
2.5 -1.5 6 17 17 17
2.5 -1.5 5 17 17 17
-3.5 1.5 5 238 238 238
-3.5 1.5 6 238 238 238
-3.5 2.5 6 238 238 238
-3.5 2.5 5 238 238 238
-3.5 2.5 1 238 238 238
-3.5 2.5 2 238 238 238
-3.5 3.5 2 238 238 238
-3.5 3.5 1 238 238 238
-3.5 -2.5 5 17 17 17
-3.5 -2.5 6 17 17 17
-3.5 -1.5 6 17 17 17
-3.5 -1.5 5 17 17 17
-3.5 1.5 1 17 17 17
-3.5 1.5 2 17 17 17
-3.5 2.5 2 17 17 17
-3.5 2.5 1 17 17 17
-3.5 -3.5 3 238 238 238
-3.5 -3.5 4 238 238 238
-3.5 -2.5 4 238 238 238
-3.5 -2.5 3 238 238 238
-3.5 -3.5 0 238 238 238
-3.5 -3.5 1 238 238 238
-3.5 -2.5 1 238 238 238
-3.5 -2.5 0 238 238 238
-3.5 2.5 6 238 238 238
-3.5 2.5 7 238 238 238
-3.5 3.5 7 238 238 238
-3.5 3.5 6 238 238 238
-3.5 -2.5 4 238 238 238
-3.5 -2.5 5 238 238 238
-3.5 -1.5 5 238 238 238
-3.5 -1.5 4 238 238 238
-3.5 -1.5 5 238 238 238
-3.5 -1.5 6 238 238 238
-3.5 -0.5 6 238 238 238
-3.5 -0.5 5 238 238 238
-3.5 -2.5 6 238 238 238
-3.5 -2.5 7 238 238 238
-3.5 -1.5 7 238 238 238
-3.5 -1.5 6 238 238 238
-3.5 -1.5 6 238 238 238
-3.5 -1.5 7 238 238 238
-3.5 -0.5 7 238 238 238
-3.5 -0.5 6 238 238 238
-3.5 -1.5 1 238 238 238
-3.5 -1.5 2 238 238 238
-3.5 -0.5 2 238 238 238
-3.5 -0.5 1 238 238 238
-3.5 2.5 2 238 238 238
-3.5 2.5 3 238 238 238
-3.5 3.5 3 238 238 238
-3.5 3.5 2 238 238 238
-3.5 0.5 1 238 238 238
-3.5 0.5 2 238 238 238
-3.5 1.5 2 238 238 238
-3.5 1.5 1 238 238 238
-3.5 -0.5 6 238 238 238
-3.5 -0.5 7 238 238 238
-3.5 0.5 7 238 238 238
-3.5 0.5 6 238 238 238
-3.5 -2.5 1 238 238 238
-3.5 -2.5 2 238 238 238
-3.5 -1.5 2 238 238 238
-3.5 -1.5 1 238 238 238
-3.5 -0.5 1 238 238 238
-3.5 -0.5 2 238 238 238
-3.5 0.5 2 238 238 238
-3.5 0.5 1 238 238 238
-3.5 -3.5 1 238 238 238
-3.5 -3.5 2 238 238 238
-3.5 -2.5 2 238 238 238
-3.5 -2.5 1 238 238 238
-3.5 0.5 6 238 238 238
-3.5 0.5 7 238 238 238
-3.5 1.5 7 238 238 238
-3.5 1.5 6 238 238 238
-3.5 0.5 2 238 238 238
-3.5 0.5 3 238 238 238
-3.5 1.5 3 238 238 238
-3.5 1.5 2 238 238 238
-3.5 -0.5 2 238 238 238
-3.5 -0.5 3 238 238 238
-3.5 0.5 3 238 238 238
-3.5 0.5 2 238 238 238
-3.5 1.5 6 238 238 238
-3.5 1.5 7 238 238 238
-3.5 2.5 7 238 238 238
-3.5 2.5 6 238 238 238
-3.5 -1.5 2 238 238 238
-3.5 -1.5 3 238 238 238
-3.5 -0.5 3 238 238 238
-3.5 -0.5 2 238 238 238
-3.5 -2.5 2 238 238 238
-3.5 -2.5 3 238 238 238
-3.5 -1.5 3 238 238 238
-3.5 -1.5 2 238 238 238
-3.5 0.5 3 238 238 238
-3.5 0.5 4 238 238 238
-3.5 1.5 4 238 238 238
-3.5 1.5 3 238 238 238
-3.5 0.5 4 238 238 238
-3.5 0.5 5 238 238 238
-3.5 1.5 5 238 238 238
-3.5 1.5 4 238 238 238
-3.5 1.5 3 238 238 238
-3.5 1.5 4 238 238 238
-3.5 2.5 4 238 238 238
-3.5 2.5 3 238 238 238
-3.5 0.5 5 238 238 238
-3.5 0.5 6 238 238 238
-3.5 1.5 6 238 238 238
-3.5 1.5 5 238 238 238
-3.5 -0.5 4 238 238 238
-3.5 -0.5 5 238 238 238
-3.5 0.5 5 238 238 238
-3.5 0.5 4 238 238 238
-3.5 1.5 4 238 238 238
-3.5 1.5 5 238 238 238
-3.5 2.5 5 238 238 238
-3.5 2.5 4 238 238 238
-3.5 -1.5 3 238 238 238
-3.5 -1.5 4 238 238 238
-3.5 -0.5 4 238 238 238
-3.5 -0.5 3 238 238 238
-3.5 1.5 2 238 238 238
-3.5 1.5 3 238 238 238
-3.5 2.5 3 238 238 238
-3.5 2.5 2 238 238 238
-3.5 -3.5 6 238 238 238
-3.5 -3.5 7 238 238 238
-3.5 -2.5 7 238 238 238
-3.5 -2.5 6 238 238 238
-3.5 2.5 3 238 238 238
-3.5 2.5 4 238 238 238
-3.5 3.5 4 238 238 238
-3.5 3.5 3 238 238 238
-3.5 2.5 4 238 238 238
-3.5 2.5 5 238 238 238
-3.5 3.5 5 238 238 238
-3.5 3.5 4 238 238 238
-3.5 -0.5 5 238 238 238
-3.5 -0.5 6 238 238 238
-3.5 0.5 6 238 238 238
-3.5 0.5 5 238 238 238
-3.5 -1.5 4 238 238 238
-3.5 -1.5 5 238 238 238
-3.5 -0.5 5 238 238 238
-3.5 -0.5 4 238 238 238
-3.5 -2.5 3 238 238 238
-3.5 -2.5 4 238 238 238
-3.5 -1.5 4 238 238 238
-3.5 -1.5 3 238 238 238
-3.5 2.5 5 238 238 238
-3.5 2.5 6 238 238 238
-3.5 3.5 6 238 238 238
-3.5 3.5 5 238 238 238
-3.5 0.5 0 238 238 238
-3.5 0.5 1 238 238 238
-3.5 1.5 1 238 238 238
-3.5 1.5 0 238 238 238
-3.5 -0.5 0 238 238 238
-3.5 -0.5 1 238 238 238
-3.5 0.5 1 238 238 238
-3.5 0.5 0 238 238 238
-3.5 1.5 0 238 238 238
-3.5 1.5 1 238 238 238
-3.5 2.5 1 238 238 238
-3.5 2.5 0 238 238 238
-3.5 -1.5 0 238 238 238
-3.5 -1.5 1 238 238 238
-3.5 -0.5 1 238 238 238
-3.5 -0.5 0 238 238 238
-3.5 -3.5 2 238 238 238
-3.5 -3.5 3 238 238 238
-3.5 -2.5 3 238 238 238
-3.5 -2.5 2 238 238 238
-3.5 -2.5 0 238 238 238
-3.5 -2.5 1 238 238 238
-3.5 -1.5 1 238 238 238
-3.5 -1.5 0 238 238 238
-3.5 -3.5 4 238 238 238
-3.5 -3.5 5 238 238 238
-3.5 -2.5 5 238 238 238
-3.5 -2.5 4 238 238 238
-3.5 -3.5 5 238 238 238
-3.5 -3.5 6 238 238 238
-3.5 -2.5 6 238 238 238
-3.5 -2.5 5 238 238 238
3.5 2.5 0 238 238 238
3.5 3.5 0 238 238 238
3.5 3.5 1 238 238 238
3.5 2.5 1 238 238 238
3.5 2.5 1 238 238 238
3.5 3.5 1 238 238 238
3.5 3.5 2 238 238 238
3.5 2.5 2 238 238 238
3.5 -2.5 5 17 17 17
3.5 -1.5 5 17 17 17
3.5 -1.5 6 17 17 17
3.5 -2.5 6 17 17 17
3.5 1.5 5 17 17 17
3.5 2.5 5 17 17 17
3.5 2.5 6 17 17 17
3.5 1.5 6 17 17 17
3.5 -2.5 1 17 17 17
3.5 -1.5 1 17 17 17
3.5 -1.5 2 17 17 17
3.5 -2.5 2 17 17 17
3.5 1.5 1 17 17 17
3.5 2.5 1 17 17 17
3.5 2.5 2 17 17 17
3.5 1.5 2 17 17 17
3.5 -3.5 0 238 238 238
3.5 -2.5 0 238 238 238
3.5 -2.5 1 238 238 238
3.5 -3.5 1 238 238 238
-2.5 -2.5 5 17 17 17
-2.5 -1.5 5 17 17 17
-2.5 -1.5 6 17 17 17
-2.5 -2.5 6 17 17 17
3.5 1.5 6 238 238 238
3.5 2.5 6 238 238 238
3.5 2.5 7 238 238 238
3.5 1.5 7 238 238 238
3.5 2.5 6 238 238 238
3.5 3.5 6 238 238 238
3.5 3.5 7 238 238 238
3.5 2.5 7 238 238 238
3.5 -1.5 5 238 238 238
3.5 -0.5 5 238 238 238
3.5 -0.5 6 238 238 238
3.5 -1.5 6 238 238 238
3.5 -2.5 4 238 238 238
3.5 -1.5 4 238 238 238
3.5 -1.5 5 238 238 238
3.5 -2.5 5 238 238 238
3.5 0.5 6 238 238 238
3.5 1.5 6 238 238 238
3.5 1.5 7 238 238 238
3.5 0.5 7 238 238 238
3.5 2.5 2 238 238 238
3.5 3.5 2 238 238 238
3.5 3.5 3 238 238 238
3.5 2.5 3 238 238 238
3.5 -2.5 2 238 238 238
3.5 -1.5 2 238 238 238
3.5 -1.5 3 238 238 238
3.5 -2.5 3 238 238 238
3.5 -1.5 1 238 238 238
3.5 -0.5 1 238 238 238
3.5 -0.5 2 238 238 238
3.5 -1.5 2 238 238 238
3.5 0.5 1 238 238 238
3.5 1.5 1 238 238 238
3.5 1.5 2 238 238 238
3.5 0.5 2 238 238 238
3.5 -0.5 1 238 238 238
3.5 0.5 1 238 238 238
3.5 0.5 2 238 238 238
3.5 -0.5 2 238 238 238
3.5 -2.5 6 238 238 238
3.5 -1.5 6 238 238 238
3.5 -1.5 7 238 238 238
3.5 -2.5 7 238 238 238
3.5 -3.5 6 238 238 238
3.5 -2.5 6 238 238 238
3.5 -2.5 7 238 238 238
3.5 -3.5 7 238 238 238
3.5 -1.5 6 238 238 238
3.5 -0.5 6 238 238 238
3.5 -0.5 7 238 238 238
3.5 -1.5 7 238 238 238
3.5 0.5 2 238 238 238
3.5 1.5 2 238 238 238
3.5 1.5 3 238 238 238
3.5 0.5 3 238 238 238
3.5 -0.5 2 238 238 238
3.5 0.5 2 238 238 238
3.5 0.5 3 238 238 238
3.5 -0.5 3 238 238 238
3.5 -1.5 2 238 238 238
3.5 -0.5 2 238 238 238
3.5 -0.5 3 238 238 238
3.5 -1.5 3 238 238 238
3.5 0.5 3 238 238 238
3.5 1.5 3 238 238 238
3.5 1.5 4 238 238 238
3.5 0.5 4 238 238 238
3.5 0.5 4 238 238 238
3.5 1.5 4 238 238 238
3.5 1.5 5 238 238 238
3.5 0.5 5 238 238 238
3.5 -0.5 3 238 238 238
3.5 0.5 3 238 238 238
3.5 0.5 4 238 238 238
3.5 -0.5 4 238 238 238
3.5 1.5 3 238 238 238
3.5 2.5 3 238 238 238
3.5 2.5 4 238 238 238
3.5 1.5 4 238 238 238
3.5 0.5 5 238 238 238
3.5 1.5 5 238 238 238
3.5 1.5 6 238 238 238
3.5 0.5 6 238 238 238
3.5 -0.5 4 238 238 238
3.5 0.5 4 238 238 238
3.5 0.5 5 238 238 238
3.5 -0.5 5 238 238 238
3.5 1.5 4 238 238 238
3.5 2.5 4 238 238 238
3.5 2.5 5 238 238 238
3.5 1.5 5 238 238 238
3.5 -1.5 3 238 238 238
3.5 -0.5 3 238 238 238
3.5 -0.5 4 238 238 238
3.5 -1.5 4 238 238 238
3.5 1.5 2 238 238 238
3.5 2.5 2 238 238 238
3.5 2.5 3 238 238 238
3.5 1.5 3 238 238 238
3.5 -0.5 6 238 238 238
3.5 0.5 6 238 238 238
3.5 0.5 7 238 238 238
3.5 -0.5 7 238 238 238
3.5 2.5 3 238 238 238
3.5 3.5 3 238 238 238
3.5 3.5 4 238 238 238
3.5 2.5 4 238 238 238
3.5 2.5 4 238 238 238
3.5 3.5 4 238 238 238
3.5 3.5 5 238 238 238
3.5 2.5 5 238 238 238
3.5 -0.5 5 238 238 238
3.5 0.5 5 238 238 238
3.5 0.5 6 238 238 238
3.5 -0.5 6 238 238 238
3.5 -1.5 4 238 238 238
3.5 -0.5 4 238 238 238
3.5 -0.5 5 238 238 238
3.5 -1.5 5 238 238 238
3.5 2.5 5 238 238 238
3.5 3.5 5 238 238 238
3.5 3.5 6 238 238 238
3.5 2.5 6 238 238 238
3.5 -2.5 3 238 238 238
3.5 -1.5 3 238 238 238
3.5 -1.5 4 238 238 238
3.5 -2.5 4 238 238 238
3.5 0.5 0 238 238 238
3.5 1.5 0 238 238 238
3.5 1.5 1 238 238 238
3.5 0.5 1 238 238 238
3.5 -0.5 0 238 238 238
3.5 0.5 0 238 238 238
3.5 0.5 1 238 238 238
3.5 -0.5 1 238 238 238
3.5 1.5 0 238 238 238
3.5 2.5 0 238 238 238
3.5 2.5 1 238 238 238
3.5 1.5 1 238 238 238
3.5 -1.5 0 238 238 238
3.5 -0.5 0 238 238 238
3.5 -0.5 1 238 238 238
3.5 -1.5 1 238 238 238
3.5 -2.5 0 238 238 238
3.5 -1.5 0 238 238 238
3.5 -1.5 1 238 238 238
3.5 -2.5 1 238 238 238
3.5 -3.5 5 238 238 238
3.5 -2.5 5 238 238 238
3.5 -2.5 6 238 238 238
3.5 -3.5 6 238 238 238
3.5 -3.5 4 238 238 238
3.5 -2.5 4 238 238 238
3.5 -2.5 5 238 238 238
3.5 -3.5 5 238 238 238
3.5 -3.5 3 238 238 238
3.5 -2.5 3 238 238 238
3.5 -2.5 4 238 238 238
3.5 -3.5 4 238 238 238
3.5 -3.5 2 238 238 238
3.5 -2.5 2 238 238 238
3.5 -2.5 3 238 238 238
3.5 -3.5 3 238 238 238
3.5 -3.5 1 238 238 238
3.5 -2.5 1 238 238 238
3.5 -2.5 2 238 238 238
3.5 -3.5 2 238 238 238
2.5 -3.5 0 238 238 238
3.5 -3.5 0 238 238 238
3.5 -3.5 1 238 238 238
2.5 -3.5 1 238 238 238
-3.5 -3.5 3 238 238 238
-2.5 -3.5 3 238 238 238
-2.5 -3.5 4 238 238 238
-3.5 -3.5 4 238 238 238
-3.5 -3.5 0 238 238 238
-2.5 -3.5 0 238 238 238
-2.5 -3.5 1 238 238 238
-3.5 -3.5 1 238 238 238
1.5 -1.5 5 238 238 238
2.5 -1.5 5 238 238 238
2.5 -1.5 6 238 238 238
1.5 -1.5 6 238 238 238
0.5 -1.5 5 238 238 238
1.5 -1.5 5 238 238 238
1.5 -1.5 6 238 238 238
0.5 -1.5 6 238 238 238
-0.5 -1.5 5 238 238 238
0.5 -1.5 5 238 238 238
0.5 -1.5 6 238 238 238
-0.5 -1.5 6 238 238 238
-1.5 -1.5 5 238 238 238
-0.5 -1.5 5 238 238 238
-0.5 -1.5 6 238 238 238
-1.5 -1.5 6 238 238 238
-2.5 -1.5 5 238 238 238
-1.5 -1.5 5 238 238 238
-1.5 -1.5 6 238 238 238
-2.5 -1.5 6 238 238 238
2.5 -3.5 6 238 238 238
3.5 -3.5 6 238 238 238
3.5 -3.5 7 238 238 238
2.5 -3.5 7 238 238 238
-3.5 -3.5 1 238 238 238
-2.5 -3.5 1 238 238 238
-2.5 -3.5 2 238 238 238
-3.5 -3.5 2 238 238 238
0.5 -3.5 0 238 238 238
1.5 -3.5 0 238 238 238
1.5 -3.5 1 238 238 238
0.5 -3.5 1 238 238 238
-3.5 -3.5 6 238 238 238
-2.5 -3.5 6 238 238 238
-2.5 -3.5 7 238 238 238
-3.5 -3.5 7 238 238 238
-0.5 -3.5 2 238 238 238
0.5 -3.5 2 238 238 238
0.5 -3.5 3 238 238 238
-0.5 -3.5 3 238 238 238
-0.5 -3.5 1 238 238 238
0.5 -3.5 1 238 238 238
0.5 -3.5 2 238 238 238
-0.5 -3.5 2 238 238 238
-1.5 -3.5 3 238 238 238
-0.5 -3.5 3 238 238 238
-0.5 -3.5 4 238 238 238
-1.5 -3.5 4 238 238 238
-1.5 -3.5 2 238 238 238
-0.5 -3.5 2 238 238 238
-0.5 -3.5 3 238 238 238
-1.5 -3.5 3 238 238 238
-1.5 -3.5 0 238 238 238
-0.5 -3.5 0 238 238 238
-0.5 -3.5 1 238 238 238
-1.5 -3.5 1 238 238 238
-2.5 -3.5 3 238 238 238
-1.5 -3.5 3 238 238 238
-1.5 -3.5 4 238 238 238
-2.5 -3.5 4 238 238 238
-3.5 -3.5 2 238 238 238
-2.5 -3.5 2 238 238 238
-2.5 -3.5 3 238 238 238
-3.5 -3.5 3 238 238 238
-0.5 -3.5 0 238 238 238
0.5 -3.5 0 238 238 238
0.5 -3.5 1 238 238 238
-0.5 -3.5 1 238 238 238
-3.5 -3.5 4 238 238 238
-2.5 -3.5 4 238 238 238
-2.5 -3.5 5 238 238 238
-3.5 -3.5 5 238 238 238
2.5 -3.5 5 238 238 238
3.5 -3.5 5 238 238 238
3.5 -3.5 6 238 238 238
2.5 -3.5 6 238 238 238
0.5 -3.5 6 238 238 238
1.5 -3.5 6 238 238 238
1.5 -3.5 7 238 238 238
0.5 -3.5 7 238 238 238
2.5 -3.5 4 238 238 238
3.5 -3.5 4 238 238 238
3.5 -3.5 5 238 238 238
2.5 -3.5 5 238 238 238
-0.5 -3.5 6 238 238 238
0.5 -3.5 6 238 238 238
0.5 -3.5 7 238 238 238
-0.5 -3.5 7 238 238 238
0.5 -3.5 5 238 238 238
1.5 -3.5 5 238 238 238
1.5 -3.5 6 238 238 238
0.5 -3.5 6 238 238 238
-3.5 -3.5 5 238 238 238
-2.5 -3.5 5 238 238 238
-2.5 -3.5 6 238 238 238
-3.5 -3.5 6 238 238 238
2.5 -3.5 3 238 238 238
3.5 -3.5 3 238 238 238
3.5 -3.5 4 238 238 238
2.5 -3.5 4 238 238 238
-1.5 -3.5 6 238 238 238
-0.5 -3.5 6 238 238 238
-0.5 -3.5 7 238 238 238
-1.5 -3.5 7 238 238 238
-0.5 -3.5 5 238 238 238
0.5 -3.5 5 238 238 238
0.5 -3.5 6 238 238 238
-0.5 -3.5 6 238 238 238
0.5 -3.5 4 238 238 238
1.5 -3.5 4 238 238 238
1.5 -3.5 5 238 238 238
0.5 -3.5 5 238 238 238
1.5 -3.5 3 238 238 238
2.5 -3.5 3 238 238 238
2.5 -3.5 4 238 238 238
1.5 -3.5 4 238 238 238
2.5 -3.5 2 238 238 238
3.5 -3.5 2 238 238 238
3.5 -3.5 3 238 238 238
2.5 -3.5 3 238 238 238
0.5 -3.5 1 238 238 238
1.5 -3.5 1 238 238 238
1.5 -3.5 2 238 238 238
0.5 -3.5 2 238 238 238
-1.5 -3.5 5 238 238 238
-0.5 -3.5 5 238 238 238
-0.5 -3.5 6 238 238 238
-1.5 -3.5 6 238 238 238
-0.5 -3.5 4 238 238 238
0.5 -3.5 4 238 238 238
0.5 -3.5 5 238 238 238
-0.5 -3.5 5 238 238 238
0.5 -3.5 3 238 238 238
1.5 -3.5 3 238 238 238
1.5 -3.5 4 238 238 238
0.5 -3.5 4 238 238 238
0.5 -3.5 2 238 238 238
1.5 -3.5 2 238 238 238
1.5 -3.5 3 238 238 238
0.5 -3.5 3 238 238 238
2.5 -3.5 1 238 238 238
3.5 -3.5 1 238 238 238
3.5 -3.5 2 238 238 238
2.5 -3.5 2 238 238 238
-1.5 -3.5 1 238 238 238
-0.5 -3.5 1 238 238 238
-0.5 -3.5 2 238 238 238
-1.5 -3.5 2 238 238 238
-0.5 -3.5 3 238 238 238
0.5 -3.5 3 238 238 238
0.5 -3.5 4 238 238 238
-0.5 -3.5 4 238 238 238
-1.5 -3.5 4 238 238 238
-0.5 -3.5 4 238 238 238
-0.5 -3.5 5 238 238 238
-1.5 -3.5 5 238 238 238
-2.5 -3.5 6 238 238 238
-1.5 -3.5 6 238 238 238
-1.5 -3.5 7 238 238 238
-2.5 -3.5 7 238 238 238
1.5 -3.5 6 238 238 238
2.5 -3.5 6 238 238 238
2.5 -3.5 7 238 238 238
1.5 -3.5 7 238 238 238
-2.5 -3.5 0 238 238 238
-1.5 -3.5 0 238 238 238
-1.5 -3.5 1 238 238 238
-2.5 -3.5 1 238 238 238
1.5 -3.5 0 238 238 238
2.5 -3.5 0 238 238 238
2.5 -3.5 1 238 238 238
1.5 -3.5 1 238 238 238
-2.5 -3.5 5 238 238 238
-1.5 -3.5 5 238 238 238
-1.5 -3.5 6 238 238 238
-2.5 -3.5 6 238 238 238
1.5 -3.5 5 17 17 17
2.5 -3.5 5 17 17 17
2.5 -3.5 6 17 17 17
1.5 -3.5 6 17 17 17
-2.5 -3.5 1 17 17 17
-1.5 -3.5 1 17 17 17
-1.5 -3.5 2 17 17 17
-2.5 -3.5 2 17 17 17
1.5 -3.5 1 238 238 238
2.5 -3.5 1 238 238 238
2.5 -3.5 2 238 238 238
1.5 -3.5 2 238 238 238
-2.5 -3.5 4 238 238 238
-1.5 -3.5 4 238 238 238
-1.5 -3.5 5 238 238 238
-2.5 -3.5 5 238 238 238
1.5 -3.5 4 238 238 238
2.5 -3.5 4 238 238 238
2.5 -3.5 5 238 238 238
1.5 -3.5 5 238 238 238
-2.5 -3.5 2 238 238 238
-1.5 -3.5 2 238 238 238
-1.5 -3.5 3 238 238 238
-2.5 -3.5 3 238 238 238
1.5 -3.5 2 238 238 238
2.5 -3.5 2 238 238 238
2.5 -3.5 3 238 238 238
1.5 -3.5 3 238 238 238
2.5 3.5 0 238 238 238
2.5 3.5 1 238 238 238
3.5 3.5 1 238 238 238
3.5 3.5 0 238 238 238
-3.5 3.5 0 238 238 238
-3.5 3.5 1 238 238 238
-2.5 3.5 1 238 238 238
-2.5 3.5 0 238 238 238
2.5 3.5 1 238 238 238
2.5 3.5 2 238 238 238
3.5 3.5 2 238 238 238
3.5 3.5 1 238 238 238
-3.5 3.5 1 238 238 238
-3.5 3.5 2 238 238 238
-2.5 3.5 2 238 238 238
-2.5 3.5 1 238 238 238
-0.5 3.5 6 238 238 238
-0.5 3.5 7 238 238 238
0.5 3.5 7 238 238 238
0.5 3.5 6 238 238 238
-0.5 3.5 3 17 17 17
-0.5 3.5 4 17 17 17
0.5 3.5 4 17 17 17
0.5 3.5 3 17 17 17
0.5 3.5 6 238 238 238
0.5 3.5 7 238 238 238
1.5 3.5 7 238 238 238
1.5 3.5 6 238 238 238
2.5 3.5 6 238 238 238
2.5 3.5 7 238 238 238
3.5 3.5 7 238 238 238
3.5 3.5 6 238 238 238
-3.5 3.5 6 238 238 238
-3.5 3.5 7 238 238 238
-2.5 3.5 7 238 238 238
-2.5 3.5 6 238 238 238
-1.5 3.5 6 238 238 238
-1.5 3.5 7 238 238 238
-0.5 3.5 7 238 238 238
-0.5 3.5 6 238 238 238
2.5 3.5 2 238 238 238
2.5 3.5 3 238 238 238
3.5 3.5 3 238 238 238
3.5 3.5 2 238 238 238
-0.5 3.5 5 238 238 238
-0.5 3.5 6 238 238 238
0.5 3.5 6 238 238 238
0.5 3.5 5 238 238 238
-1.5 3.5 5 238 238 238
-1.5 3.5 6 238 238 238
-0.5 3.5 6 238 238 238
-0.5 3.5 5 238 238 238
-0.5 3.5 1 238 238 238
-0.5 3.5 2 238 238 238
0.5 3.5 2 238 238 238
0.5 3.5 1 238 238 238
-3.5 3.5 2 238 238 238
-3.5 3.5 3 238 238 238
-2.5 3.5 3 238 238 238
-2.5 3.5 2 238 238 238
0.5 3.5 1 238 238 238
0.5 3.5 2 238 238 238
1.5 3.5 2 238 238 238
1.5 3.5 1 238 238 238
2.5 3.5 3 238 238 238
2.5 3.5 4 238 238 238
3.5 3.5 4 238 238 238
3.5 3.5 3 238 238 238
-1.5 3.5 1 238 238 238
-1.5 3.5 2 238 238 238
-0.5 3.5 2 238 238 238
-0.5 3.5 1 238 238 238
-0.5 3.5 2 238 238 238
-0.5 3.5 3 238 238 238
0.5 3.5 3 238 238 238
0.5 3.5 2 238 238 238
-3.5 3.5 3 238 238 238
-3.5 3.5 4 238 238 238
-2.5 3.5 4 238 238 238
-2.5 3.5 3 238 238 238
0.5 3.5 2 238 238 238
0.5 3.5 3 238 238 238
1.5 3.5 3 238 238 238
1.5 3.5 2 238 238 238
1.5 3.5 3 238 238 238
1.5 3.5 4 238 238 238
2.5 3.5 4 238 238 238
2.5 3.5 3 238 238 238
2.5 3.5 4 238 238 238
2.5 3.5 5 238 238 238
3.5 3.5 5 238 238 238
3.5 3.5 4 238 238 238
-1.5 3.5 2 238 238 238
-1.5 3.5 3 238 238 238
-0.5 3.5 3 238 238 238
-0.5 3.5 2 238 238 238
-2.5 3.5 3 238 238 238
-2.5 3.5 4 238 238 238
-1.5 3.5 4 238 238 238
-1.5 3.5 3 238 238 238
-3.5 3.5 4 238 238 238
-3.5 3.5 5 238 238 238
-2.5 3.5 5 238 238 238
-2.5 3.5 4 238 238 238
0.5 3.5 3 238 238 238
0.5 3.5 4 238 238 238
1.5 3.5 4 238 238 238
1.5 3.5 3 238 238 238
2.5 3.5 5 238 238 238
2.5 3.5 6 238 238 238
3.5 3.5 6 238 238 238
3.5 3.5 5 238 238 238
-1.5 3.5 3 238 238 238
-1.5 3.5 4 238 238 238
-0.5 3.5 4 238 238 238
-0.5 3.5 3 238 238 238
-3.5 3.5 5 238 238 238
-3.5 3.5 6 238 238 238
-2.5 3.5 6 238 238 238
-2.5 3.5 5 238 238 238
0.5 3.5 4 238 238 238
0.5 3.5 5 238 238 238
1.5 3.5 5 238 238 238
1.5 3.5 4 238 238 238
-1.5 3.5 4 238 238 238
-1.5 3.5 5 238 238 238
-0.5 3.5 5 238 238 238
-0.5 3.5 4 238 238 238
-0.5 3.5 4 238 238 238
-0.5 3.5 5 238 238 238
0.5 3.5 5 238 238 238
0.5 3.5 4 238 238 238
0.5 3.5 5 238 238 238
0.5 3.5 6 238 238 238
1.5 3.5 6 238 238 238
1.5 3.5 5 238 238 238
0.5 3.5 0 238 238 238
0.5 3.5 1 238 238 238
1.5 3.5 1 238 238 238
1.5 3.5 0 238 238 238
-0.5 3.5 0 238 238 238
-0.5 3.5 1 238 238 238
0.5 3.5 1 238 238 238
0.5 3.5 0 238 238 238
-1.5 3.5 0 238 238 238
-1.5 3.5 1 238 238 238
-0.5 3.5 1 238 238 238
-0.5 3.5 0 238 238 238
0.5 -2.5 5 238 238 238
0.5 -2.5 6 238 238 238
1.5 -2.5 6 238 238 238
1.5 -2.5 5 238 238 238
-0.5 -2.5 5 238 238 238
-0.5 -2.5 6 238 238 238
0.5 -2.5 6 238 238 238
0.5 -2.5 5 238 238 238
-1.5 -2.5 5 238 238 238
-1.5 -2.5 6 238 238 238
-0.5 -2.5 6 238 238 238
-0.5 -2.5 5 238 238 238
-2.5 3.5 6 238 238 238
-2.5 3.5 7 238 238 238
-1.5 3.5 7 238 238 238
-1.5 3.5 6 238 238 238
1.5 3.5 6 238 238 238
1.5 3.5 7 238 238 238
2.5 3.5 7 238 238 238
2.5 3.5 6 238 238 238
-2.5 3.5 0 238 238 238
-2.5 3.5 1 238 238 238
-1.5 3.5 1 238 238 238
-1.5 3.5 0 238 238 238
1.5 3.5 0 238 238 238
1.5 3.5 1 238 238 238
2.5 3.5 1 238 238 238
2.5 3.5 0 238 238 238
-2.5 -2.5 5 238 238 238
-2.5 -2.5 6 238 238 238
-1.5 -2.5 6 238 238 238
-1.5 -2.5 5 238 238 238
1.5 -2.5 5 17 17 17
1.5 -2.5 6 17 17 17
2.5 -2.5 6 17 17 17
2.5 -2.5 5 17 17 17
-2.5 3.5 5 17 17 17
-2.5 3.5 6 17 17 17
-1.5 3.5 6 17 17 17
-1.5 3.5 5 17 17 17
1.5 3.5 5 17 17 17
1.5 3.5 6 17 17 17
2.5 3.5 6 17 17 17
2.5 3.5 5 17 17 17
-2.5 3.5 1 17 17 17
-2.5 3.5 2 17 17 17
-1.5 3.5 2 17 17 17
-1.5 3.5 1 17 17 17
1.5 3.5 1 17 17 17
1.5 3.5 2 17 17 17
2.5 3.5 2 17 17 17
2.5 3.5 1 17 17 17
-2.5 3.5 4 238 238 238
-2.5 3.5 5 238 238 238
-1.5 3.5 5 238 238 238
-1.5 3.5 4 238 238 238
1.5 3.5 4 238 238 238
1.5 3.5 5 238 238 238
2.5 3.5 5 238 238 238
2.5 3.5 4 238 238 238
-2.5 3.5 2 238 238 238
-2.5 3.5 3 238 238 238
-1.5 3.5 3 238 238 238
-1.5 3.5 2 238 238 238
1.5 3.5 2 238 238 238
1.5 3.5 3 238 238 238
2.5 3.5 3 238 238 238
2.5 3.5 2 238 238 238
2.5 2.5 0 238 238 238
2.5 3.5 0 238 238 238
3.5 3.5 0 238 238 238
3.5 2.5 0 238 238 238
-3.5 2.5 0 238 238 238
-3.5 3.5 0 238 238 238
-2.5 3.5 0 238 238 238
-2.5 2.5 0 238 238 238
2.5 -3.5 0 238 238 238
2.5 -2.5 0 238 238 238
3.5 -2.5 0 238 238 238
3.5 -3.5 0 238 238 238
-3.5 -3.5 0 238 238 238
-3.5 -2.5 0 238 238 238
-2.5 -2.5 0 238 238 238
-2.5 -3.5 0 238 238 238
1.5 1.5 0 17 17 17
1.5 2.5 0 17 17 17
2.5 2.5 0 17 17 17
2.5 1.5 0 17 17 17
1.5 -0.5 0 17 17 17
1.5 0.5 0 17 17 17
2.5 0.5 0 17 17 17
2.5 -0.5 0 17 17 17
1.5 -2.5 0 17 17 17
1.5 -1.5 0 17 17 17
2.5 -1.5 0 17 17 17
2.5 -2.5 0 17 17 17
-2.5 -2.5 0 17 17 17
-2.5 -1.5 0 17 17 17
-1.5 -1.5 0 17 17 17
-1.5 -2.5 0 17 17 17
-2.5 -0.5 0 17 17 17
-2.5 0.5 0 17 17 17
-1.5 0.5 0 17 17 17
-1.5 -0.5 0 17 17 17
-2.5 1.5 0 17 17 17
-2.5 2.5 0 17 17 17
-1.5 2.5 0 17 17 17
-1.5 1.5 0 17 17 17
-2.5 -2.5 6 238 238 238
-2.5 -1.5 6 238 238 238
-1.5 -1.5 6 238 238 238
-1.5 -2.5 6 238 238 238
-1.5 -2.5 6 238 238 238
-1.5 -1.5 6 238 238 238
-0.5 -1.5 6 238 238 238
-0.5 -2.5 6 238 238 238
1.5 -2.5 6 238 238 238
1.5 -1.5 6 238 238 238
2.5 -1.5 6 238 238 238
2.5 -2.5 6 238 238 238
-0.5 -2.5 6 238 238 238
-0.5 -1.5 6 238 238 238
0.5 -1.5 6 238 238 238
0.5 -2.5 6 238 238 238
0.5 -3.5 0 238 238 238
0.5 -2.5 0 238 238 238
1.5 -2.5 0 238 238 238
1.5 -3.5 0 238 238 238
0.5 -2.5 6 238 238 238
0.5 -1.5 6 238 238 238
1.5 -1.5 6 238 238 238
1.5 -2.5 6 238 238 238
0.5 0.5 0 238 238 238
0.5 1.5 0 238 238 238
1.5 1.5 0 238 238 238
1.5 0.5 0 238 238 238
0.5 -0.5 0 238 238 238
0.5 0.5 0 238 238 238
1.5 0.5 0 238 238 238
1.5 -0.5 0 238 238 238
0.5 1.5 0 238 238 238
0.5 2.5 0 238 238 238
1.5 2.5 0 238 238 238
1.5 1.5 0 238 238 238
-0.5 0.5 0 238 238 238
-0.5 1.5 0 238 238 238
0.5 1.5 0 238 238 238
0.5 0.5 0 238 238 238
1.5 0.5 0 238 238 238
1.5 1.5 0 238 238 238
2.5 1.5 0 238 238 238
2.5 0.5 0 238 238 238
0.5 -1.5 0 238 238 238
0.5 -0.5 0 238 238 238
1.5 -0.5 0 238 238 238
1.5 -1.5 0 238 238 238
-0.5 -0.5 0 238 238 238
-0.5 0.5 0 238 238 238
0.5 0.5 0 238 238 238
0.5 -0.5 0 238 238 238
0.5 2.5 0 238 238 238
0.5 3.5 0 238 238 238
1.5 3.5 0 238 238 238
1.5 2.5 0 238 238 238
-0.5 1.5 0 238 238 238
-0.5 2.5 0 238 238 238
0.5 2.5 0 238 238 238
0.5 1.5 0 238 238 238
-1.5 0.5 0 238 238 238
-1.5 1.5 0 238 238 238
-0.5 1.5 0 238 238 238
-0.5 0.5 0 238 238 238
2.5 0.5 0 238 238 238
2.5 1.5 0 238 238 238
3.5 1.5 0 238 238 238
3.5 0.5 0 238 238 238
0.5 -2.5 0 238 238 238
0.5 -1.5 0 238 238 238
1.5 -1.5 0 238 238 238
1.5 -2.5 0 238 238 238
-0.5 -1.5 0 238 238 238
-0.5 -0.5 0 238 238 238
0.5 -0.5 0 238 238 238
0.5 -1.5 0 238 238 238
1.5 -1.5 0 238 238 238
1.5 -0.5 0 238 238 238
2.5 -0.5 0 238 238 238
2.5 -1.5 0 238 238 238
-1.5 -0.5 0 238 238 238
-1.5 0.5 0 238 238 238
-0.5 0.5 0 238 238 238
-0.5 -0.5 0 238 238 238
-0.5 2.5 0 238 238 238
-0.5 3.5 0 238 238 238
0.5 3.5 0 238 238 238
0.5 2.5 0 238 238 238
-1.5 1.5 0 238 238 238
-1.5 2.5 0 238 238 238
-0.5 2.5 0 238 238 238
-0.5 1.5 0 238 238 238
-2.5 0.5 0 238 238 238
-2.5 1.5 0 238 238 238
-1.5 1.5 0 238 238 238
-1.5 0.5 0 238 238 238
2.5 -0.5 0 238 238 238
2.5 0.5 0 238 238 238
3.5 0.5 0 238 238 238
3.5 -0.5 0 238 238 238
2.5 1.5 0 238 238 238
2.5 2.5 0 238 238 238
3.5 2.5 0 238 238 238
3.5 1.5 0 238 238 238
-0.5 -2.5 0 238 238 238
-0.5 -1.5 0 238 238 238
0.5 -1.5 0 238 238 238
0.5 -2.5 0 238 238 238
-1.5 -1.5 0 238 238 238
-1.5 -0.5 0 238 238 238
-0.5 -0.5 0 238 238 238
-0.5 -1.5 0 238 238 238
2.5 -1.5 0 238 238 238
2.5 -0.5 0 238 238 238
3.5 -0.5 0 238 238 238
3.5 -1.5 0 238 238 238
-1.5 2.5 0 238 238 238
-1.5 3.5 0 238 238 238
-0.5 3.5 0 238 238 238
-0.5 2.5 0 238 238 238
-1.5 -3.5 0 238 238 238
-1.5 -2.5 0 238 238 238
-0.5 -2.5 0 238 238 238
-0.5 -3.5 0 238 238 238
-3.5 0.5 0 238 238 238
-3.5 1.5 0 238 238 238
-2.5 1.5 0 238 238 238
-2.5 0.5 0 238 238 238
-1.5 -2.5 0 238 238 238
-1.5 -1.5 0 238 238 238
-0.5 -1.5 0 238 238 238
-0.5 -2.5 0 238 238 238
-2.5 -1.5 0 238 238 238
-2.5 -0.5 0 238 238 238
-1.5 -0.5 0 238 238 238
-1.5 -1.5 0 238 238 238
2.5 -2.5 0 238 238 238
2.5 -1.5 0 238 238 238
3.5 -1.5 0 238 238 238
3.5 -2.5 0 238 238 238
-3.5 -0.5 0 238 238 238
-3.5 0.5 0 238 238 238
-2.5 0.5 0 238 238 238
-2.5 -0.5 0 238 238 238
-3.5 1.5 0 238 238 238
-3.5 2.5 0 238 238 238
-2.5 2.5 0 238 238 238
-2.5 1.5 0 238 238 238
-3.5 -1.5 0 238 238 238
-3.5 -0.5 0 238 238 238
-2.5 -0.5 0 238 238 238
-2.5 -1.5 0 238 238 238
-3.5 -2.5 0 238 238 238
-3.5 -1.5 0 238 238 238
-2.5 -1.5 0 238 238 238
-2.5 -2.5 0 238 238 238
-0.5 -3.5 0 238 238 238
-0.5 -2.5 0 238 238 238
0.5 -2.5 0 238 238 238
0.5 -3.5 0 238 238 238
-2.5 -3.5 0 238 238 238
-2.5 -2.5 0 238 238 238
-1.5 -2.5 0 238 238 238
-1.5 -3.5 0 238 238 238
1.5 -3.5 0 238 238 238
1.5 -2.5 0 238 238 238
2.5 -2.5 0 238 238 238
2.5 -3.5 0 238 238 238
-2.5 2.5 0 238 238 238
-2.5 3.5 0 238 238 238
-1.5 3.5 0 238 238 238
-1.5 2.5 0 238 238 238
1.5 2.5 0 238 238 238
1.5 3.5 0 238 238 238
2.5 3.5 0 238 238 238
2.5 2.5 0 238 238 238
-1.5 0.5 7 238 238 238
-0.5 0.5 7 238 238 238
-0.5 1.5 7 238 238 238
-1.5 1.5 7 238 238 238
1.5 -0.5 7 238 238 238
2.5 -0.5 7 238 238 238
2.5 0.5 7 238 238 238
1.5 0.5 7 238 238 238
0.5 -1.5 7 238 238 238
1.5 -1.5 7 238 238 238
1.5 -0.5 7 238 238 238
0.5 -0.5 7 238 238 238
2.5 1.5 7 238 238 238
3.5 1.5 7 238 238 238
3.5 2.5 7 238 238 238
2.5 2.5 7 238 238 238
-1.5 1.5 7 238 238 238
-0.5 1.5 7 238 238 238
-0.5 2.5 7 238 238 238
-1.5 2.5 7 238 238 238
-0.5 2.5 7 238 238 238
0.5 2.5 7 238 238 238
0.5 3.5 7 238 238 238
-0.5 3.5 7 238 238 238
1.5 0.5 7 238 238 238
2.5 0.5 7 238 238 238
2.5 1.5 7 238 238 238
1.5 1.5 7 238 238 238
-0.5 0.5 7 238 238 238
0.5 0.5 7 238 238 238
0.5 1.5 7 238 238 238
-0.5 1.5 7 238 238 238
0.5 -0.5 7 238 238 238
1.5 -0.5 7 238 238 238
1.5 0.5 7 238 238 238
0.5 0.5 7 238 238 238
1.5 1.5 7 238 238 238
2.5 1.5 7 238 238 238
2.5 2.5 7 238 238 238
1.5 2.5 7 238 238 238
-0.5 1.5 7 238 238 238
0.5 1.5 7 238 238 238
0.5 2.5 7 238 238 238
-0.5 2.5 7 238 238 238
0.5 2.5 7 238 238 238
1.5 2.5 7 238 238 238
1.5 3.5 7 238 238 238
0.5 3.5 7 238 238 238
0.5 0.5 7 238 238 238
1.5 0.5 7 238 238 238
1.5 1.5 7 238 238 238
0.5 1.5 7 238 238 238
0.5 1.5 7 238 238 238
1.5 1.5 7 238 238 238
1.5 2.5 7 238 238 238
0.5 2.5 7 238 238 238
1.5 -2.5 5 238 238 238
2.5 -2.5 5 238 238 238
2.5 -1.5 5 238 238 238
1.5 -1.5 5 238 238 238
0.5 -2.5 5 238 238 238
1.5 -2.5 5 238 238 238
1.5 -1.5 5 238 238 238
0.5 -1.5 5 238 238 238
-0.5 -2.5 5 238 238 238
0.5 -2.5 5 238 238 238
0.5 -1.5 5 238 238 238
-0.5 -1.5 5 238 238 238
2.5 2.5 7 238 238 238
3.5 2.5 7 238 238 238
3.5 3.5 7 238 238 238
2.5 3.5 7 238 238 238
-1.5 -2.5 5 238 238 238
-0.5 -2.5 5 238 238 238
-0.5 -1.5 5 238 238 238
-1.5 -1.5 5 238 238 238
-2.5 -2.5 5 238 238 238
-1.5 -2.5 5 238 238 238
-1.5 -1.5 5 238 238 238
-2.5 -1.5 5 238 238 238
-3.5 2.5 7 238 238 238
-2.5 2.5 7 238 238 238
-2.5 3.5 7 238 238 238
-3.5 3.5 7 238 238 238
2.5 0.5 7 238 238 238
3.5 0.5 7 238 238 238
3.5 1.5 7 238 238 238
2.5 1.5 7 238 238 238
-1.5 2.5 7 238 238 238
-0.5 2.5 7 238 238 238
-0.5 3.5 7 238 238 238
-1.5 3.5 7 238 238 238
-0.5 -0.5 7 17 17 17
0.5 -0.5 7 17 17 17
0.5 0.5 7 17 17 17
-0.5 0.5 7 17 17 17
-3.5 -2.5 7 238 238 238
-2.5 -2.5 7 238 238 238
-2.5 -1.5 7 238 238 238
-3.5 -1.5 7 238 238 238
-3.5 -1.5 7 238 238 238
-2.5 -1.5 7 238 238 238
-2.5 -0.5 7 238 238 238
-3.5 -0.5 7 238 238 238
-2.5 -2.5 7 238 238 238
-1.5 -2.5 7 238 238 238
-1.5 -1.5 7 238 238 238
-2.5 -1.5 7 238 238 238
-3.5 -0.5 7 238 238 238
-2.5 -0.5 7 238 238 238
-2.5 0.5 7 238 238 238
-3.5 0.5 7 238 238 238
-2.5 -1.5 7 238 238 238
-1.5 -1.5 7 238 238 238
-1.5 -0.5 7 238 238 238
-2.5 -0.5 7 238 238 238
2.5 -2.5 7 238 238 238
3.5 -2.5 7 238 238 238
3.5 -1.5 7 238 238 238
2.5 -1.5 7 238 238 238
2.5 -3.5 7 238 238 238
3.5 -3.5 7 238 238 238
3.5 -2.5 7 238 238 238
2.5 -2.5 7 238 238 238
-1.5 -2.5 7 238 238 238
-0.5 -2.5 7 238 238 238
-0.5 -1.5 7 238 238 238
-1.5 -1.5 7 238 238 238
-3.5 0.5 7 238 238 238
-2.5 0.5 7 238 238 238
-2.5 1.5 7 238 238 238
-3.5 1.5 7 238 238 238
-2.5 -0.5 7 238 238 238
-1.5 -0.5 7 238 238 238
-1.5 0.5 7 238 238 238
-2.5 0.5 7 238 238 238
2.5 -1.5 7 238 238 238
3.5 -1.5 7 238 238 238
3.5 -0.5 7 238 238 238
2.5 -0.5 7 238 238 238
-1.5 -1.5 7 238 238 238
-0.5 -1.5 7 238 238 238
-0.5 -0.5 7 238 238 238
-1.5 -0.5 7 238 238 238
1.5 -2.5 7 238 238 238
2.5 -2.5 7 238 238 238
2.5 -1.5 7 238 238 238
1.5 -1.5 7 238 238 238
-0.5 -2.5 7 238 238 238
0.5 -2.5 7 238 238 238
0.5 -1.5 7 238 238 238
-0.5 -1.5 7 238 238 238
-3.5 1.5 7 238 238 238
-2.5 1.5 7 238 238 238
-2.5 2.5 7 238 238 238
-3.5 2.5 7 238 238 238
-2.5 0.5 7 238 238 238
-1.5 0.5 7 238 238 238
-1.5 1.5 7 238 238 238
-2.5 1.5 7 238 238 238
-1.5 -0.5 7 238 238 238
-0.5 -0.5 7 238 238 238
-0.5 0.5 7 238 238 238
-1.5 0.5 7 238 238 238
2.5 -0.5 7 238 238 238
3.5 -0.5 7 238 238 238
3.5 0.5 7 238 238 238
2.5 0.5 7 238 238 238
-3.5 -3.5 7 238 238 238
-2.5 -3.5 7 238 238 238
-2.5 -2.5 7 238 238 238
-3.5 -2.5 7 238 238 238
1.5 -1.5 7 238 238 238
2.5 -1.5 7 238 238 238
2.5 -0.5 7 238 238 238
1.5 -0.5 7 238 238 238
-0.5 -1.5 7 238 238 238
0.5 -1.5 7 238 238 238
0.5 -0.5 7 238 238 238
-0.5 -0.5 7 238 238 238
0.5 -2.5 7 238 238 238
1.5 -2.5 7 238 238 238
1.5 -1.5 7 238 238 238
0.5 -1.5 7 238 238 238
-2.5 1.5 7 238 238 238
-1.5 1.5 7 238 238 238
-1.5 2.5 7 238 238 238
-2.5 2.5 7 238 238 238
0.5 -3.5 7 238 238 238
1.5 -3.5 7 238 238 238
1.5 -2.5 7 238 238 238
0.5 -2.5 7 238 238 238
-0.5 -3.5 7 238 238 238
0.5 -3.5 7 238 238 238
0.5 -2.5 7 238 238 238
-0.5 -2.5 7 238 238 238
-1.5 -3.5 7 238 238 238
-0.5 -3.5 7 238 238 238
-0.5 -2.5 7 238 238 238
-1.5 -2.5 7 238 238 238
-2.5 -3.5 7 238 238 238
-1.5 -3.5 7 238 238 238
-1.5 -2.5 7 238 238 238
-2.5 -2.5 7 238 238 238
1.5 -3.5 7 238 238 238
2.5 -3.5 7 238 238 238
2.5 -2.5 7 238 238 238
1.5 -2.5 7 238 238 238
-2.5 2.5 7 238 238 238
-1.5 2.5 7 238 238 238
-1.5 3.5 7 238 238 238
-2.5 3.5 7 238 238 238
1.5 2.5 7 238 238 238
2.5 2.5 7 238 238 238
2.5 3.5 7 238 238 238
1.5 3.5 7 238 238 238
4 0 1 2 3
4 4 5 6 7
4 8 9 10 11
4 12 13 14 15
4 16 17 18 19
4 20 21 22 23
4 24 25 26 27
4 28 29 30 31
4 32 33 34 35
4 36 37 38 39
4 40 41 42 43
4 44 45 46 47
4 48 49 50 51
4 52 53 54 55
4 56 57 58 59
4 60 61 62 63
4 64 65 66 67
4 68 69 70 71
4 72 73 74 75
4 76 77 78 79
4 80 81 82 83
4 84 85 86 87
4 88 89 90 91
4 92 93 94 95
4 96 97 98 99
4 100 101 102 103
4 104 105 106 107
4 108 109 110 111
4 112 113 114 115
4 116 117 118 119
4 120 121 122 123
4 124 125 126 127
4 128 129 130 131
4 132 133 134 135
4 136 137 138 139
4 140 141 142 143
4 144 145 146 147
4 148 149 150 151
4 152 153 154 155
4 156 157 158 159
4 160 161 162 163
4 164 165 166 167
4 168 169 170 171
4 172 173 174 175
4 176 177 178 179
4 180 181 182 183
4 184 185 186 187
4 188 189 190 191
4 192 193 194 195
4 196 197 198 199
4 200 201 202 203
4 204 205 206 207
4 208 209 210 211
4 212 213 214 215
4 216 217 218 219
4 220 221 222 223
4 224 225 226 227
4 228 229 230 231
4 232 233 234 235
4 236 237 238 239
4 240 241 242 243
4 244 245 246 247
4 248 249 250 251
4 252 253 254 255
4 256 257 258 259
4 260 261 262 263
4 264 265 266 267
4 268 269 270 271
4 272 273 274 275
4 276 277 278 279
4 280 281 282 283
4 284 285 286 287
4 288 289 290 291
4 292 293 294 295
4 296 297 298 299
4 300 301 302 303
4 304 305 306 307
4 308 309 310 311
4 312 313 314 315
4 316 317 318 319
4 320 321 322 323
4 324 325 326 327
4 328 329 330 331
4 332 333 334 335
4 336 337 338 339
4 340 341 342 343
4 344 345 346 347
4 348 349 350 351
4 352 353 354 355
4 356 357 358 359
4 360 361 362 363
4 364 365 366 367
4 368 369 370 371
4 372 373 374 375
4 376 377 378 379
4 380 381 382 383
4 384 385 386 387
4 388 389 390 391
4 392 393 394 395
4 396 397 398 399
4 400 401 402 403
4 404 405 406 407
4 408 409 410 411
4 412 413 414 415
4 416 417 418 419
4 420 421 422 423
4 424 425 426 427
4 428 429 430 431
4 432 433 434 435
4 436 437 438 439
4 440 441 442 443
4 444 445 446 447
4 448 449 450 451
4 452 453 454 455
4 456 457 458 459
4 460 461 462 463
4 464 465 466 467
4 468 469 470 471
4 472 473 474 475
4 476 477 478 479
4 480 481 482 483
4 484 485 486 487
4 488 489 490 491
4 492 493 494 495
4 496 497 498 499
4 500 501 502 503
4 504 505 506 507
4 508 509 510 511
4 512 513 514 515
4 516 517 518 519
4 520 521 522 523
4 524 525 526 527
4 528 529 530 531
4 532 533 534 535
4 536 537 538 539
4 540 541 542 543
4 544 545 546 547
4 548 549 550 551
4 552 553 554 555
4 556 557 558 559
4 560 561 562 563
4 564 565 566 567
4 568 569 570 571
4 572 573 574 575
4 576 577 578 579
4 580 581 582 583
4 584 585 586 587
4 588 589 590 591
4 592 593 594 595
4 596 597 598 599
4 600 601 602 603
4 604 605 606 607
4 608 609 610 611
4 612 613 614 615
4 616 617 618 619
4 620 621 622 623
4 624 625 626 627
4 628 629 630 631
4 632 633 634 635
4 636 637 638 639
4 640 641 642 643
4 644 645 646 647
4 648 649 650 651
4 652 653 654 655
4 656 657 658 659
4 660 661 662 663
4 664 665 666 667
4 668 669 670 671
4 672 673 674 675
4 676 677 678 679
4 680 681 682 683
4 684 685 686 687
4 688 689 690 691
4 692 693 694 695
4 696 697 698 699
4 700 701 702 703
4 704 705 706 707
4 708 709 710 711
4 712 713 714 715
4 716 717 718 719
4 720 721 722 723
4 724 725 726 727
4 728 729 730 731
4 732 733 734 735
4 736 737 738 739
4 740 741 742 743
4 744 745 746 747
4 748 749 750 751
4 752 753 754 755
4 756 757 758 759
4 760 761 762 763
4 764 765 766 767
4 768 769 770 771
4 772 773 774 775
4 776 777 778 779
4 780 781 782 783
4 784 785 786 787
4 788 789 790 791
4 792 793 794 795
4 796 797 798 799
4 800 801 802 803
4 804 805 806 807
4 808 809 810 811
4 812 813 814 815
4 816 817 818 819
4 820 821 822 823
4 824 825 826 827
4 828 829 830 831
4 832 833 834 835
4 836 837 838 839
4 840 841 842 843
4 844 845 846 847
4 848 849 850 851
4 852 853 854 855
4 856 857 858 859
4 860 861 862 863
4 864 865 866 867
4 868 869 870 871
4 872 873 874 875
4 876 877 878 879
4 880 881 882 883
4 884 885 886 887
4 888 889 890 891
4 892 893 894 895
4 896 897 898 899
4 900 901 902 903
4 904 905 906 907
4 908 909 910 911
4 912 913 914 915
4 916 917 918 919
4 920 921 922 923
4 924 925 926 927
4 928 929 930 931
4 932 933 934 935
4 936 937 938 939
4 940 941 942 943
4 944 945 946 947
4 948 949 950 951
4 952 953 954 955
4 956 957 958 959
4 960 961 962 963
4 964 965 966 967
4 968 969 970 971
4 972 973 974 975
4 976 977 978 979
4 980 981 982 983
4 984 985 986 987
4 988 989 990 991
4 992 993 994 995
4 996 997 998 999
4 1000 1001 1002 1003
4 1004 1005 1006 1007
4 1008 1009 1010 1011
4 1012 1013 1014 1015
4 1016 1017 1018 1019
4 1020 1021 1022 1023
4 1024 1025 1026 1027
4 1028 1029 1030 1031
4 1032 1033 1034 1035
4 1036 1037 1038 1039
4 1040 1041 1042 1043
4 1044 1045 1046 1047
4 1048 1049 1050 1051
4 1052 1053 1054 1055
4 1056 1057 1058 1059
4 1060 1061 1062 1063
4 1064 1065 1066 1067
4 1068 1069 1070 1071
4 1072 1073 1074 1075
4 1076 1077 1078 1079
4 1080 1081 1082 1083
4 1084 1085 1086 1087
4 1088 1089 1090 1091
4 1092 1093 1094 1095
4 1096 1097 1098 1099
4 1100 1101 1102 1103
4 1104 1105 1106 1107
4 1108 1109 1110 1111
4 1112 1113 1114 1115
4 1116 1117 1118 1119
4 1120 1121 1122 1123
4 1124 1125 1126 1127
4 1128 1129 1130 1131
4 1132 1133 1134 1135
4 1136 1137 1138 1139
4 1140 1141 1142 1143
4 1144 1145 1146 1147
4 1148 1149 1150 1151
4 1152 1153 1154 1155
4 1156 1157 1158 1159
4 1160 1161 1162 1163
4 1164 1165 1166 1167
4 1168 1169 1170 1171
4 1172 1173 1174 1175
4 1176 1177 1178 1179
4 1180 1181 1182 1183
4 1184 1185 1186 1187
4 1188 1189 1190 1191
4 1192 1193 1194 1195
4 1196 1197 1198 1199
4 1200 1201 1202 1203
4 1204 1205 1206 1207
4 1208 1209 1210 1211
4 1212 1213 1214 1215
4 1216 1217 1218 1219
4 1220 1221 1222 1223
4 1224 1225 1226 1227
4 1228 1229 1230 1231
4 1232 1233 1234 1235
4 1236 1237 1238 1239
4 1240 1241 1242 1243
4 1244 1245 1246 1247
4 1248 1249 1250 1251
4 1252 1253 1254 1255
4 1256 1257 1258 1259
4 1260 1261 1262 1263
